HIERARCHY
ROOT SpineBase
{
  OFFSET 0.000000 0.000000 0.000000
  CHANNELS 6 Xposition Yposition Zposition Zrotation Xrotation Yrotation
  JOINT SpineMid
  {
    OFFSET 0.000000 35.691000 0.000000
    CHANNELS 3 Zrotation Xrotation Yrotation
    JOINT SpineShoulder
    {
      OFFSET 0.260361 26.489953 -0.870236
      CHANNELS 3 Zrotation Xrotation Yrotation
      JOINT Neck
      {
        OFFSET 0.189242 8.748155 -0.649104
        CHANNELS 3 Zrotation Xrotation Yrotation
        JOINT Head
        {
          OFFSET -0.029972 11.769176 3.816861
          CHANNELS 3 Zrotation Xrotation Yrotation
          End Site
          {
            OFFSET 0 0 0
          }
        }
      }
      JOINT ShoulderLeft
      {
        OFFSET -14.462403 -6.391909 -1.101392
        CHANNELS 3 Zrotation Xrotation Yrotation
        JOINT ElbowLeft
        {
          OFFSET 0.352703 -26.471048 -2.673257
          CHANNELS 3 Zrotation Xrotation Yrotation
          JOINT WristLeft
          {
            OFFSET -4.601916 -22.091716 5.394145
            CHANNELS 3 Zrotation Xrotation Yrotation
            JOINT HandLeft
            {
              OFFSET -0.093290 -4.559621 -5.250148
              CHANNELS 3 Zrotation Xrotation Yrotation
              JOINT HandTipLeft
              {
                OFFSET -6.575562 -9.232731 8.088058
                CHANNELS 3 Zrotation Xrotation Yrotation
                End Site
                {
                  OFFSET 0 0 0
                }
              }
              JOINT ThumbLeft
              {
                OFFSET -1.281111 5.873328 0.043918
                CHANNELS 3 Zrotation Xrotation Yrotation
                End Site
                {
                  OFFSET 0 0 0
                }
              }
            }
          }
        }
      }
      JOINT ShoulderRight
      {
        OFFSET 11.479967 -5.981944 -11.116463
        CHANNELS 3 Zrotation Xrotation Yrotation
        JOINT ElbowRight
        {
          OFFSET 6.694565 -27.568809 -0.306770
          CHANNELS 3 Zrotation Xrotation Yrotation
          JOINT WristRight
          {
            OFFSET 2.966472 -23.377964 6.450789
            CHANNELS 3 Zrotation Xrotation Yrotation
            JOINT HandRight
            {
              OFFSET 0.250947 -3.913953 0.243167
              CHANNELS 3 Zrotation Xrotation Yrotation
              JOINT HandTipRight
              {
                OFFSET 1.268294 -5.524922 -0.176357
                CHANNELS 3 Zrotation Xrotation Yrotation
                End Site
                {
                  OFFSET 0 0 0
                }
              }
              JOINT ThumbRight
              {
                OFFSET 3.144385 -0.696330 -2.534512
                CHANNELS 3 Zrotation Xrotation Yrotation
                End Site
                {
                  OFFSET 0 0 0
                }
              }
            }
          }
        }
      }
    }
  }
  JOINT HipLeft
  {
    OFFSET -5.917075 1.049390 -1.540298
    CHANNELS 3 Zrotation Xrotation Yrotation
    JOINT KneeLeft
    {
      OFFSET -1.751021 -33.462481 -2.805062
      CHANNELS 3 Zrotation Xrotation Yrotation
      JOINT AnkleLeft
      {
        OFFSET -4.337105 -35.607637 0.201209
        CHANNELS 3 Zrotation Xrotation Yrotation
        JOINT FootLeft
        {
          OFFSET -2.092865 -2.013658 -11.837208
          CHANNELS 3 Zrotation Xrotation Yrotation
          End Site
          {
            OFFSET 0 0 0
          }
        }
      }
    }
  }
  JOINT HipRight
  {
    OFFSET 7.768971 2.033749 -5.604832
    CHANNELS 3 Zrotation Xrotation Yrotation
    JOINT KneeRight
    {
      OFFSET -3.867672 -33.089596 -4.652689
      CHANNELS 3 Zrotation Xrotation Yrotation
      JOINT AnkleRight
      {
        OFFSET -2.066021 -29.441392 -4.000754
        CHANNELS 3 Zrotation Xrotation Yrotation
        JOINT FootRight
        {
          OFFSET -8.557700 -2.715715 3.946022
          CHANNELS 3 Zrotation Xrotation Yrotation
          End Site
          {
            OFFSET 0 0 0
          }
        }
      }
    }
  }
}
MOTION
Frames: 12
Frame Time: 0.033333
-60.244390 72.118305 238.307867 -0.000000 0.000000 16.540565 -0.000000 0.000000 -16.540565 -0.000000 0.000000 0.000000 -0.000000 0.000000 0.000000 0.000000 0.000000 0.000000 -0.000000 0.000000 0.000000 -0.000000 0.000000 0.000000 -0.000000 0.000000 0.000000 -0.000000 0.000000 0.000000 0.000000 0.000000 0.000000 0.000000 0.000000 0.000000 -0.000000 0.000000 0.000000 -0.000000 0.000000 0.000000 -0.000000 0.000000 0.000000 -0.000000 0.000000 0.000000 0.000000 0.000000 0.000000 0.000000 0.000000 0.000000 -0.000000 0.000000 -16.540565 -0.000000 0.000000 0.000000 -0.000000 0.000000 0.000000 0.000000 0.000000 0.000000 -0.000000 0.000000 -16.540565 -0.000000 0.000000 0.000000 -0.000000 0.000000 0.000000 0.000000 0.000000 0.000000
-60.262544 72.101513 238.339645 -0.072306 -0.009535 16.618663 0.072013 -0.011543 -16.618662 -0.000000 0.000000 0.000000 -0.000000 0.000000 0.000000 0.000000 0.000000 0.000000 1.208831 0.152270 -0.121626 9.252534 3.401866 1.689544 -8.506507 -8.750739 -4.585531 1.897334 8.287780 4.341886 0.000000 0.000000 0.000000 0.000000 0.000000 0.000000 -0.000000 0.000000 0.000000 0.115121 2.173107 0.306931 -7.603209 -2.532722 -1.112359 3.930690 -0.126656 0.452377 0.000000 0.000000 0.000000 0.000000 0.000000 0.000000 0.072013 -0.011543 -16.618662 -0.000000 0.000000 0.000000 2.899885 -9.228234 -14.354450 0.000000 0.000000 0.000000 0.072013 -0.011543 -16.618662 -0.000000 0.000000 0.000000 -0.000000 0.000000 0.000000 0.000000 0.000000 0.000000
-60.282993 72.085073 238.365973 -0.141042 -0.014239 16.693316 0.139188 -0.026875 -16.693301 -0.000000 0.000000 0.000000 -0.000000 0.000000 0.000000 0.000000 0.000000 0.000000 2.600015 0.323818 -0.265493 18.608825 7.251635 2.777380 -18.208802 -17.581267 -9.639159 4.347225 17.969256 8.176490 0.000000 0.000000 0.000000 0.000000 0.000000 0.000000 -0.000000 0.000000 0.000000 0.196868 4.011834 0.562009 -13.610316 -4.666093 -2.489279 6.938044 -0.041864 0.787004 0.000000 0.000000 0.000000 0.000000 0.000000 0.000000 0.139188 -0.026875 -16.693301 -0.000000 0.000000 0.000000 2.831313 -23.311397 -34.597719 0.000000 0.000000 0.000000 0.139188 -0.026875 -16.693301 -0.395320 -0.704767 0.100805 0.687553 1.159712 -1.140670 0.000000 0.000000 0.000000
-60.305738 72.068986 238.386850 -0.206208 -0.014116 16.764612 0.201516 -0.045963 -16.764556 -0.000000 0.000000 0.000000 -0.000000 0.000000 0.000000 0.000000 0.000000 0.000000 4.177984 0.513661 -0.433596 27.141838 11.066937 3.151101 -28.296128 -25.923410 -15.060590 7.820715 29.112730 10.902314 0.000000 0.000000 0.000000 0.000000 0.000000 0.000000 -0.478900 0.683015 0.174208 0.744674 4.873139 0.607144 -17.863866 -6.509051 -3.853915 8.895905 0.238046 1.015326 0.000000 0.000000 0.000000 0.000000 0.000000 0.000000 0.201516 -0.045963 -16.764556 -0.000000 0.000000 0.000000 -3.138616 -36.709214 -56.640112 0.000000 0.000000 0.000000 0.201516 -0.045963 -16.764556 -0.483873 -0.910735 0.125917 0.821042 1.487778 -1.502611 0.000000 0.000000 0.000000
-60.330780 72.053251 238.402276 -0.267809 -0.009169 16.832636 0.258990 -0.068775 -16.832502 -0.000000 0.000000 0.000000 -0.000000 0.000000 0.000000 0.000000 0.000000 0.000000 5.945636 0.720305 -0.627948 34.171028 14.441980 2.951420 -38.028141 -33.417743 -20.663281 13.200768 41.506875 11.402776 0.000000 0.000000 0.000000 0.000000 0.000000 0.000000 -0.638223 0.915108 0.234717 0.944971 5.926175 0.725152 -20.383263 -8.191139 -5.018287 9.829878 0.698188 1.158087 0.000000 0.000000 0.000000 0.000000 0.000000 0.000000 0.258990 -0.068775 -16.832502 -0.000000 0.000000 0.000000 -11.823768 -44.812203 -74.156847 0.000000 0.000000 0.000000 0.258990 -0.068775 -16.832502 -0.499176 -1.017680 0.134938 0.811864 1.648668 -1.723347 0.000000 0.000000 0.000000
-60.358118 72.037869 238.412252 -0.325845 0.000598 16.897474 0.311604 -0.095282 -16.897213 -0.000000 0.000000 0.000000 -0.000000 0.000000 0.000000 0.000000 0.000000 0.000000 7.903735 0.941669 -0.850453 39.427713 17.205655 2.434029 -46.990286 -39.955101 -26.289632 22.391908 54.321323 7.425209 0.000000 0.000000 0.000000 0.000000 0.000000 0.000000 -0.797430 1.149416 0.296463 1.126238 6.740316 0.808700 -21.254949 -9.818041 -5.859900 9.811842 1.325845 1.235286 0.000000 0.000000 0.000000 0.000000 0.000000 0.000000 0.311604 -0.095282 -16.897213 -0.000000 0.000000 0.000000 -19.154420 -49.288394 -84.880335 0.000000 0.000000 0.000000 0.311604 -0.095282 -16.897213 -0.441201 -1.025238 0.128075 0.659349 1.642611 -1.802751 0.000000 0.000000 0.000000
-60.393247 72.018295 238.405634 -0.383234 0.023717 16.937171 0.359702 -0.134331 -16.936670 -0.000000 0.000000 0.000000 -0.000000 0.000000 0.000000 0.000000 0.000000 0.000000 11.019951 1.238842 -1.216391 44.629782 20.364706 1.444749 -58.878397 -47.549900 -34.579636 55.014716 69.596753 -18.535062 0.000000 0.000000 0.000000 0.000000 0.000000 0.000000 -0.991567 1.474836 0.382700 1.271728 7.704338 0.886711 -19.404861 -13.366758 -6.534360 7.377665 3.217759 1.292264 0.000000 0.000000 0.000000 0.000000 0.000000 0.000000 0.359702 -0.134331 -16.936670 -0.000000 0.000000 0.000000 -22.179151 -53.255036 -84.185901 0.000000 0.000000 0.000000 0.359702 -0.134331 -16.936670 -0.000000 0.000000 0.000000 -0.289846 0.349040 -1.514705 0.000000 0.000000 0.000000
-60.430055 72.000093 238.404377 -0.439466 0.044728 16.999305 0.407190 -0.171254 -16.998525 -0.000000 0.000000 0.000000 -0.000000 0.000000 0.000000 0.000000 0.000000 0.000000 13.959202 1.528859 -1.578731 47.165535 22.415774 0.621255 -69.025311 -53.482722 -42.331657 105.241011 70.968196 -64.970136 0.000000 0.000000 0.000000 0.000000 0.000000 0.000000 -1.169287 1.746592 0.456046 1.411808 8.075007 0.897785 -16.450298 -15.756136 -6.344394 5.759412 4.484564 1.156794 0.000000 0.000000 0.000000 0.000000 0.000000 0.000000 0.407190 -0.171254 -16.998525 -0.000000 0.000000 0.000000 -16.094650 -55.588511 -67.515318 0.000000 0.000000 0.000000 0.407190 -0.171254 -16.998525 -0.000000 0.000000 0.000000 -1.366854 -0.233810 -1.203342 0.000000 0.000000 0.000000
-60.461483 71.984661 238.399415 -0.487741 0.068014 17.046302 0.446378 -0.208001 -17.045202 -0.000000 0.000000 0.000000 -0.000000 0.000000 0.000000 0.000000 0.000000 0.000000 16.402682 1.783485 -1.894394 47.403602 23.488143 0.216102 -75.731074 -57.161142 -48.010855 127.811207 65.800182 -86.905565 0.000000 0.000000 0.000000 0.000000 0.000000 0.000000 -1.282515 1.937428 0.507752 1.587808 7.901986 0.870212 -12.380071 -15.311548 -5.093601 4.456394 3.832156 0.783089 0.000000 0.000000 0.000000 0.000000 0.000000 0.000000 -0.386230 -0.364059 -16.965889 0.750851 0.392179 -0.086039 -13.960016 -57.647521 -60.302245 0.000000 0.000000 0.000000 0.446378 -0.208001 -17.045202 -0.000000 0.000000 0.000000 -0.651244 0.052169 -1.091525 0.000000 0.000000 0.000000
-60.489180 71.977276 238.394505 -0.523375 0.087617 17.100711 0.474476 -0.237637 -17.099326 -0.000000 0.000000 0.000000 -0.292345 -0.751870 0.091172 0.000000 0.000000 0.000000 19.260087 2.073070 -2.278113 43.493423 23.480220 0.584916 -76.518831 -59.597984 -50.362844 133.936759 63.748109 -95.475963 0.000000 0.000000 0.000000 0.000000 0.000000 0.000000 -1.381922 2.071168 0.544840 1.743334 7.332825 0.796954 -12.420185 -14.780850 -4.949665 2.513784 4.906344 1.385086 0.000000 0.000000 0.000000 0.000000 0.000000 0.000000 -0.369392 -0.431860 -17.018736 0.750089 0.432653 -0.088353 -20.027071 -61.375369 -67.833831 0.000000 0.000000 0.000000 1.250650 -0.492861 -17.207497 -0.816921 0.014147 0.113219 0.418738 0.519000 -1.047860 0.000000 0.000000 0.000000
-60.505518 71.976446 238.390287 -0.543863 0.107959 17.149012 0.487856 -0.263515 -17.147378 -0.000000 0.000000 0.000000 -0.249385 -0.787223 0.077333 0.000000 0.000000 0.000000 19.163073 2.098653 -2.270219 40.204647 22.444395 1.226279 -71.148243 -59.075766 -46.795570 127.220702 66.975498 -91.860325 0.000000 0.000000 0.000000 0.000000 0.000000 0.000000 -1.469984 2.185241 0.576774 2.259561 6.782682 0.819033 -12.435984 -14.631524 -4.890223 2.095122 5.051758 1.376691 0.000000 0.000000 0.000000 0.000000 0.000000 0.000000 0.487856 -0.263515 -17.147378 -0.000000 0.000000 0.000000 -9.029850 -55.895934 -51.102669 0.000000 0.000000 0.000000 1.298545 -0.564090 -17.257375 -1.374645 -0.941120 0.251313 1.789260 1.825697 -1.026283 0.000000 0.000000 0.000000
-60.524143 71.981823 238.394299 -0.565004 0.118657 17.178423 0.504760 -0.280230 -17.176604 -0.000000 0.000000 0.000000 -0.000000 0.000000 0.000000 0.000000 0.000000 0.000000 16.208819 1.807478 -1.874511 45.150625 22.779042 0.669074 -73.620162 -58.529129 -47.546369 127.800063 66.384849 -91.925613 0.000000 0.000000 0.000000 0.000000 0.000000 0.000000 -1.579198 2.264973 0.600744 2.388203 6.052492 0.726875 -13.366000 -14.925222 -5.080357 2.597335 5.449462 1.365170 0.000000 0.000000 0.000000 0.000000 0.000000 0.000000 0.504760 -0.280230 -17.176604 -0.000000 0.000000 0.000000 -3.488525 -49.416450 -42.057110 0.000000 0.000000 0.000000 1.363566 -0.602900 -17.292480 -2.296102 -1.580943 0.407303 2.622719 2.287691 -0.714890 0.000000 0.000000 0.000000
